<mxfile host="app.diagrams.net" modified="2024-06-23T01:04:49.879Z" agent="Mozilla/5.0 (Windows NT 10.0; Win64; x64) AppleWebKit/537.36 (KHTML, like Gecko) Chrome/125.0.0.0 Safari/537.36" etag="bTSfYVsfTUn38_pEa40r" version="24.6.0" type="github">
  <diagram name="Page-1" id="hRsvSLn2zVmAwbegXf9u">
    <mxGraphModel dx="880" dy="529" grid="1" gridSize="10" guides="1" tooltips="1" connect="1" arrows="1" fold="1" page="1" pageScale="1" pageWidth="850" pageHeight="1100" math="0" shadow="0">
      <root>
        <mxCell id="0" />
        <mxCell id="1" parent="0" />
        <mxCell id="Yn_4mtnrS9CEGiopFEC6-2" value="&lt;font style=&quot;font-size: 14px;&quot;&gt;User&lt;/font&gt;" style="swimlane;fontStyle=1;align=center;verticalAlign=top;childLayout=stackLayout;horizontal=1;startSize=26;horizontalStack=0;resizeParent=1;resizeParentMax=0;resizeLast=0;collapsible=1;marginBottom=0;whiteSpace=wrap;html=1;" parent="1" vertex="1">
          <mxGeometry x="200" y="50" width="160" height="240" as="geometry" />
        </mxCell>
        <mxCell id="Yn_4mtnrS9CEGiopFEC6-3" value="&lt;font style=&quot;font-size: 12px;&quot;&gt;&lt;font style=&quot;font-size: 12px;&quot;&gt;- &lt;/font&gt;&lt;font style=&quot;font-size: 12px;&quot;&gt;id: int&lt;/font&gt;&lt;/font&gt;&lt;div style=&quot;&quot;&gt;&lt;font style=&quot;font-size: 12px;&quot;&gt;- prenom: string&lt;/font&gt;&lt;/div&gt;&lt;div style=&quot;&quot;&gt;&lt;font style=&quot;font-size: 12px;&quot;&gt;- &lt;font style=&quot;font-size: 12px;&quot;&gt;nom: string&lt;/font&gt;&lt;/font&gt;&lt;/div&gt;&lt;div style=&quot;&quot;&gt;&lt;span style=&quot;background-color: initial;&quot;&gt;&lt;font style=&quot;font-size: 12px;&quot;&gt;- login: string&lt;/font&gt;&lt;/span&gt;&lt;/div&gt;&lt;div style=&quot;&quot;&gt;&lt;span style=&quot;background-color: initial;&quot;&gt;&lt;font style=&quot;font-size: 12px;&quot;&gt;- password: string&lt;/font&gt;&lt;/span&gt;&lt;/div&gt;" style="text;strokeColor=none;fillColor=none;align=left;verticalAlign=top;spacingLeft=4;spacingRight=4;overflow=hidden;rotatable=0;points=[[0,0.5],[1,0.5]];portConstraint=eastwest;whiteSpace=wrap;html=1;" parent="Yn_4mtnrS9CEGiopFEC6-2" vertex="1">
          <mxGeometry y="26" width="160" height="94" as="geometry" />
        </mxCell>
        <mxCell id="Yn_4mtnrS9CEGiopFEC6-4" value="" style="line;strokeWidth=1;fillColor=none;align=left;verticalAlign=middle;spacingTop=-1;spacingLeft=3;spacingRight=3;rotatable=0;labelPosition=right;points=[];portConstraint=eastwest;strokeColor=inherit;" parent="Yn_4mtnrS9CEGiopFEC6-2" vertex="1">
          <mxGeometry y="120" width="160" height="8" as="geometry" />
        </mxCell>
        <mxCell id="Yn_4mtnrS9CEGiopFEC6-5" value="&lt;font style=&quot;font-size: 12px;&quot;&gt;+ inscription(String prenom, String nom, String login, String password): void&lt;/font&gt;&lt;div style=&quot;&quot;&gt;&lt;font style=&quot;font-size: 12px;&quot;&gt;+ connexion(String login, String password): boolean&lt;/font&gt;&lt;/div&gt;" style="text;strokeColor=none;fillColor=none;align=left;verticalAlign=top;spacingLeft=4;spacingRight=4;overflow=hidden;rotatable=0;points=[[0,0.5],[1,0.5]];portConstraint=eastwest;whiteSpace=wrap;html=1;" parent="Yn_4mtnrS9CEGiopFEC6-2" vertex="1">
          <mxGeometry y="128" width="160" height="112" as="geometry" />
        </mxCell>
        <mxCell id="Yn_4mtnrS9CEGiopFEC6-6" value="&lt;font style=&quot;font-size: 14px;&quot;&gt;Livre&lt;/font&gt;" style="swimlane;fontStyle=1;align=center;verticalAlign=top;childLayout=stackLayout;horizontal=1;startSize=26;horizontalStack=0;resizeParent=1;resizeParentMax=0;resizeLast=0;collapsible=1;marginBottom=0;whiteSpace=wrap;html=1;" parent="1" vertex="1">
          <mxGeometry x="520" y="20" width="210" height="310" as="geometry" />
        </mxCell>
        <mxCell id="Yn_4mtnrS9CEGiopFEC6-7" value="&lt;font style=&quot;font-size: 12px;&quot;&gt;- id: int&lt;/font&gt;&lt;div style=&quot;&quot;&gt;&lt;font style=&quot;font-size: 12px;&quot;&gt;- titre: string&lt;/font&gt;&lt;/div&gt;&lt;div style=&quot;&quot;&gt;&lt;font style=&quot;font-size: 12px;&quot;&gt;- description: string&lt;/font&gt;&lt;/div&gt;&lt;div style=&quot;&quot;&gt;&lt;font style=&quot;font-size: 12px;&quot;&gt;- categorie: string&lt;/font&gt;&lt;/div&gt;&lt;div style=&quot;&quot;&gt;&lt;font style=&quot;font-size: 12px;&quot;&gt;- nbpages: int&lt;/font&gt;&lt;/div&gt;&lt;div style=&quot;&quot;&gt;&lt;font style=&quot;font-size: 12px;&quot;&gt;- disponible: boolean&lt;/font&gt;&lt;/div&gt;" style="text;strokeColor=none;fillColor=none;align=left;verticalAlign=top;spacingLeft=4;spacingRight=4;overflow=hidden;rotatable=0;points=[[0,0.5],[1,0.5]];portConstraint=eastwest;whiteSpace=wrap;html=1;" parent="Yn_4mtnrS9CEGiopFEC6-6" vertex="1">
          <mxGeometry y="26" width="210" height="104" as="geometry" />
        </mxCell>
        <mxCell id="Yn_4mtnrS9CEGiopFEC6-8" value="" style="line;strokeWidth=1;fillColor=none;align=left;verticalAlign=middle;spacingTop=-1;spacingLeft=3;spacingRight=3;rotatable=0;labelPosition=right;points=[];portConstraint=eastwest;strokeColor=inherit;" parent="Yn_4mtnrS9CEGiopFEC6-6" vertex="1">
          <mxGeometry y="130" width="210" height="8" as="geometry" />
        </mxCell>
        <mxCell id="Yn_4mtnrS9CEGiopFEC6-9" value="&lt;div&gt;+ ajouterLivre(Livre livre): void&lt;/div&gt;&lt;div&gt;+ modifierLivre(Livre livre): void&lt;/div&gt;&lt;div&gt;+ supprimerLivre(Livre livre): void&lt;/div&gt;&lt;div&gt;+ rechercherParTitre(String titre): Livre[]&lt;/div&gt;&lt;div&gt;+ rechercherParAuteur(String auteur): Livre[]&lt;/div&gt;&lt;div&gt;+ rechercherParCategorie(String categorie): Livre[]&lt;/div&gt;&lt;div&gt;+ voirDetails(int id): Livre&lt;/div&gt;" style="text;strokeColor=none;fillColor=none;align=left;verticalAlign=top;spacingLeft=4;spacingRight=4;overflow=hidden;rotatable=0;points=[[0,0.5],[1,0.5]];portConstraint=eastwest;whiteSpace=wrap;html=1;" parent="Yn_4mtnrS9CEGiopFEC6-6" vertex="1">
          <mxGeometry y="138" width="210" height="172" as="geometry" />
        </mxCell>
        <mxCell id="Yn_4mtnrS9CEGiopFEC6-14" value="Emprunt" style="swimlane;fontStyle=1;align=center;verticalAlign=top;childLayout=stackLayout;horizontal=1;startSize=26;horizontalStack=0;resizeParent=1;resizeParentMax=0;resizeLast=0;collapsible=1;marginBottom=0;whiteSpace=wrap;html=1;" parent="1" vertex="1">
          <mxGeometry x="300" y="460" width="180" height="210" as="geometry" />
        </mxCell>
        <mxCell id="Yn_4mtnrS9CEGiopFEC6-15" value="- id: int&lt;div&gt;- date_emprunt: Date&lt;/div&gt;&lt;div&gt;- date_retour: Date&lt;/div&gt;&lt;div&gt;- &lt;span style=&quot;background-color: rgb(255, 255, 255);&quot;&gt;#id_user: int&lt;/span&gt;&lt;/div&gt;" style="text;strokeColor=none;fillColor=none;align=left;verticalAlign=top;spacingLeft=4;spacingRight=4;overflow=hidden;rotatable=0;points=[[0,0.5],[1,0.5]];portConstraint=eastwest;whiteSpace=wrap;html=1;" parent="Yn_4mtnrS9CEGiopFEC6-14" vertex="1">
          <mxGeometry y="26" width="180" height="74" as="geometry" />
        </mxCell>
        <mxCell id="Yn_4mtnrS9CEGiopFEC6-16" value="" style="line;strokeWidth=1;fillColor=none;align=left;verticalAlign=middle;spacingTop=-1;spacingLeft=3;spacingRight=3;rotatable=0;labelPosition=right;points=[];portConstraint=eastwest;strokeColor=inherit;" parent="Yn_4mtnrS9CEGiopFEC6-14" vertex="1">
          <mxGeometry y="100" width="180" height="8" as="geometry" />
        </mxCell>
        <mxCell id="Yn_4mtnrS9CEGiopFEC6-17" value="&lt;div&gt;+ enregistrerEmprunt(Emprunt emprunt): void&lt;/div&gt;&lt;div&gt;+ voirEmprunt(int id): Emprunt&lt;/div&gt;&lt;div&gt;+ listerEmprunts(): Emprunt[]&lt;/div&gt;&lt;div&gt;+ enregistrerRetour(Emprunt emprunt): void&lt;/div&gt;" style="text;strokeColor=none;fillColor=none;align=left;verticalAlign=top;spacingLeft=4;spacingRight=4;overflow=hidden;rotatable=0;points=[[0,0.5],[1,0.5]];portConstraint=eastwest;whiteSpace=wrap;html=1;" parent="Yn_4mtnrS9CEGiopFEC6-14" vertex="1">
          <mxGeometry y="108" width="180" height="102" as="geometry" />
        </mxCell>
        <mxCell id="Yn_4mtnrS9CEGiopFEC6-18" value="Admin" style="swimlane;fontStyle=1;align=center;verticalAlign=top;childLayout=stackLayout;horizontal=1;startSize=26;horizontalStack=0;resizeParent=1;resizeParentMax=0;resizeLast=0;collapsible=1;marginBottom=0;whiteSpace=wrap;html=1;" parent="1" vertex="1">
          <mxGeometry x="40" y="370" width="160" height="180" as="geometry" />
        </mxCell>
        <mxCell id="Yn_4mtnrS9CEGiopFEC6-19" value="- id: int&lt;div&gt;- prenom: string&lt;/div&gt;&lt;div&gt;- nom: string&lt;/div&gt;&lt;div&gt;- login: string&lt;/div&gt;&lt;div&gt;- password: string&lt;/div&gt;" style="text;strokeColor=none;fillColor=none;align=left;verticalAlign=top;spacingLeft=4;spacingRight=4;overflow=hidden;rotatable=0;points=[[0,0.5],[1,0.5]];portConstraint=eastwest;whiteSpace=wrap;html=1;" parent="Yn_4mtnrS9CEGiopFEC6-18" vertex="1">
          <mxGeometry y="26" width="160" height="94" as="geometry" />
        </mxCell>
        <mxCell id="Yn_4mtnrS9CEGiopFEC6-20" value="" style="line;strokeWidth=1;fillColor=none;align=left;verticalAlign=middle;spacingTop=-1;spacingLeft=3;spacingRight=3;rotatable=0;labelPosition=right;points=[];portConstraint=eastwest;strokeColor=inherit;" parent="Yn_4mtnrS9CEGiopFEC6-18" vertex="1">
          <mxGeometry y="120" width="160" height="8" as="geometry" />
        </mxCell>
        <mxCell id="Yn_4mtnrS9CEGiopFEC6-21" value="&lt;font style=&quot;font-size: 12px;&quot;&gt;+&amp;nbsp;connexion(String login, String password): boolean&lt;/font&gt;&lt;div style=&quot;&quot;&gt;&lt;br&gt;&lt;/div&gt;" style="text;strokeColor=none;fillColor=none;align=left;verticalAlign=top;spacingLeft=4;spacingRight=4;overflow=hidden;rotatable=0;points=[[0,0.5],[1,0.5]];portConstraint=eastwest;whiteSpace=wrap;html=1;" parent="Yn_4mtnrS9CEGiopFEC6-18" vertex="1">
          <mxGeometry y="128" width="160" height="52" as="geometry" />
        </mxCell>
        <mxCell id="Yn_4mtnrS9CEGiopFEC6-26" value="" style="endArrow=none;html=1;rounded=0;entryX=0.478;entryY=1.012;entryDx=0;entryDy=0;entryPerimeter=0;exitX=1.002;exitY=0.118;exitDx=0;exitDy=0;exitPerimeter=0;" parent="1" source="Yn_4mtnrS9CEGiopFEC6-16" edge="1">
          <mxGeometry relative="1" as="geometry">
            <mxPoint x="470" y="557.94" as="sourcePoint" />
            <mxPoint x="640.3800000000001" y="340.00399999999996" as="targetPoint" />
          </mxGeometry>
        </mxCell>
        <mxCell id="Yn_4mtnrS9CEGiopFEC6-27" value="N" style="edgeLabel;resizable=0;html=1;align=left;verticalAlign=bottom;" parent="Yn_4mtnrS9CEGiopFEC6-26" connectable="0" vertex="1">
          <mxGeometry x="-1" relative="1" as="geometry" />
        </mxCell>
        <mxCell id="Yn_4mtnrS9CEGiopFEC6-28" value="N" style="edgeLabel;resizable=0;html=1;align=right;verticalAlign=bottom;" parent="Yn_4mtnrS9CEGiopFEC6-26" connectable="0" vertex="1">
          <mxGeometry x="1" relative="1" as="geometry" />
        </mxCell>
        <mxCell id="Yn_4mtnrS9CEGiopFEC6-29" value="" style="endArrow=none;html=1;rounded=0;exitX=0.981;exitY=1.006;exitDx=0;exitDy=0;exitPerimeter=0;entryX=0.307;entryY=-0.021;entryDx=0;entryDy=0;entryPerimeter=0;" parent="1" source="Yn_4mtnrS9CEGiopFEC6-5" target="Yn_4mtnrS9CEGiopFEC6-14" edge="1">
          <mxGeometry relative="1" as="geometry">
            <mxPoint x="260" y="340" as="sourcePoint" />
            <mxPoint x="420" y="340" as="targetPoint" />
          </mxGeometry>
        </mxCell>
        <mxCell id="Yn_4mtnrS9CEGiopFEC6-30" value="1" style="edgeLabel;resizable=0;html=1;align=left;verticalAlign=bottom;" parent="Yn_4mtnrS9CEGiopFEC6-29" connectable="0" vertex="1">
          <mxGeometry x="-1" relative="1" as="geometry" />
        </mxCell>
        <mxCell id="Yn_4mtnrS9CEGiopFEC6-31" value="N" style="edgeLabel;resizable=0;html=1;align=right;verticalAlign=bottom;" parent="Yn_4mtnrS9CEGiopFEC6-29" connectable="0" vertex="1">
          <mxGeometry x="1" relative="1" as="geometry" />
        </mxCell>
        <mxCell id="Yn_4mtnrS9CEGiopFEC6-32" value="Pret" style="swimlane;fontStyle=0;childLayout=stackLayout;horizontal=1;startSize=26;fillColor=none;horizontalStack=0;resizeParent=1;resizeParentMax=0;resizeLast=0;collapsible=1;marginBottom=0;whiteSpace=wrap;html=1;" parent="1" vertex="1">
          <mxGeometry x="630" y="463" width="140" height="100" as="geometry" />
        </mxCell>
        <mxCell id="Yn_4mtnrS9CEGiopFEC6-33" value="- id_pret: int&lt;div&gt;&lt;span style=&quot;background-color: rgb(255, 255, 255);&quot;&gt;#id_emprunt: int&lt;/span&gt;&lt;/div&gt;&lt;div&gt;&lt;span style=&quot;background-color: rgb(255, 255, 255);&quot;&gt;#id_livre&lt;/span&gt;: int&lt;/div&gt;" style="text;strokeColor=none;fillColor=none;align=left;verticalAlign=top;spacingLeft=4;spacingRight=4;overflow=hidden;rotatable=0;points=[[0,0.5],[1,0.5]];portConstraint=eastwest;whiteSpace=wrap;html=1;" parent="Yn_4mtnrS9CEGiopFEC6-32" vertex="1">
          <mxGeometry y="26" width="140" height="74" as="geometry" />
        </mxCell>
        <mxCell id="Yn_4mtnrS9CEGiopFEC6-36" value="" style="endArrow=none;html=1;edgeStyle=orthogonalEdgeStyle;rounded=0;" parent="1" edge="1">
          <mxGeometry relative="1" as="geometry">
            <mxPoint x="600" y="400" as="sourcePoint" />
            <mxPoint x="670" y="460" as="targetPoint" />
          </mxGeometry>
        </mxCell>
      </root>
    </mxGraphModel>
  </diagram>
</mxfile>
